# xmcd
# 
# Track frame offsets:
#     182
#     14982
#     28105
#     41342
#     54575
#     64107
#     76535
#     87322
#     107715
#     118242
#     126805
#     136360
# 
# Disc length: 1955
# 
# Revision: 2
# Processed by: cddbd v1.5.2PL0 Copyright (c) Steve Scherf et al.
# Submitted via: fre:ac v1.0.17
# 
DISCID=a107a10c
DTITLE=Various Artist - The Lady Killers
DYEAR=1995
DGENRE=Pop
TTITLE0=Rod Stewart - So Much To Say
TTITLE1=BJ Thomas - Raindrops Keep Fallin' On My Head
TTITLE2=Frank Sinatra - All Or Nothing At All
TTITLE3=Nat King Cole - Sweet Lorraine
TTITLE4=Tony Bennett - Chicago
TTITLE5=Sam Cooke - You Send Me
TTITLE6=Franki Avalon - Venus
TTITLE7=Marvin Gaye - Sexual Healing (live)
TTITLE8=Rick Nelson - Travelin' Man
TTITLE9=Jerry Lee Lewis - Great Balls Of Fire
TTITLE10=Little Richard - Good Golly Miss Molly
TTITLE11=Del Shannon - Runaway
EXTD=Charly ST24
EXTT0=Rod Stewart
EXTT1=B.J. Thomas
EXTT2=Frank Sinatra
EXTT3=Nat King Cole
EXTT4=Tony Bennett
EXTT5=Sam Cooke
EXTT6=Frankie Avalon
EXTT7=Marvin Gaye
EXTT8=Rick Nelson
EXTT9=Jerry Lee Lewis
EXTT10=Little Richard
EXTT11=Del Shannon
PLAYORDER=
